<mxfile host="app.diagrams.net" modified="2024-06-03T02:30:08.391Z" agent="Mozilla/5.0 (Windows NT 10.0; Win64; x64) AppleWebKit/537.36 (KHTML, like Gecko) Chrome/125.0.0.0 Safari/537.36" etag="Lite3hrPcZHWal0Zpokh" version="24.4.7" type="github">
  <diagram name="第 1 页" id="o7NVEy5ZeB7Ofw3YBmb_">
    <mxGraphModel dx="2074" dy="1098" grid="1" gridSize="10" guides="1" tooltips="1" connect="1" arrows="1" fold="1" page="1" pageScale="1" pageWidth="827" pageHeight="1169" math="0" shadow="0">
      <root>
        <mxCell id="0" />
        <mxCell id="1" parent="0" />
        <mxCell id="yH9J0eVR_fN1qxmJFBAw-28" style="edgeStyle=orthogonalEdgeStyle;rounded=0;orthogonalLoop=1;jettySize=auto;html=1;exitX=1;exitY=0.5;exitDx=0;exitDy=0;entryX=0.5;entryY=0;entryDx=0;entryDy=0;" edge="1" parent="1" source="yH9J0eVR_fN1qxmJFBAw-25" target="yH9J0eVR_fN1qxmJFBAw-30">
          <mxGeometry relative="1" as="geometry">
            <mxPoint x="200" y="570" as="targetPoint" />
            <mxPoint x="640" y="280" as="sourcePoint" />
            <Array as="points">
              <mxPoint x="680" y="280" />
              <mxPoint x="680" y="510" />
              <mxPoint x="200" y="510" />
              <mxPoint x="200" y="580" />
            </Array>
          </mxGeometry>
        </mxCell>
        <mxCell id="yH9J0eVR_fN1qxmJFBAw-25" value="" style="rounded=0;whiteSpace=wrap;html=1;strokeColor=none;fillColor=#FFFFCC;" vertex="1" parent="1">
          <mxGeometry x="450" y="170" width="140" height="220" as="geometry" />
        </mxCell>
        <mxCell id="yH9J0eVR_fN1qxmJFBAw-5" value="" style="rounded=0;orthogonalLoop=1;jettySize=auto;html=1;exitX=0.5;exitY=0.5;exitDx=0;exitDy=0;exitPerimeter=0;" edge="1" parent="1" source="yH9J0eVR_fN1qxmJFBAw-1" target="yH9J0eVR_fN1qxmJFBAw-4">
          <mxGeometry relative="1" as="geometry" />
        </mxCell>
        <mxCell id="yH9J0eVR_fN1qxmJFBAw-7" style="rounded=0;orthogonalLoop=1;jettySize=auto;html=1;entryX=0;entryY=0.5;entryDx=0;entryDy=0;" edge="1" parent="1" target="yH9J0eVR_fN1qxmJFBAw-6">
          <mxGeometry relative="1" as="geometry">
            <mxPoint x="60" y="350" as="sourcePoint" />
          </mxGeometry>
        </mxCell>
        <mxCell id="yH9J0eVR_fN1qxmJFBAw-1" value="用户" style="shape=umlActor;verticalLabelPosition=bottom;verticalAlign=top;html=1;outlineConnect=0;" vertex="1" parent="1">
          <mxGeometry x="30" y="320" width="30" height="60" as="geometry" />
        </mxCell>
        <mxCell id="yH9J0eVR_fN1qxmJFBAw-10" style="rounded=0;orthogonalLoop=1;jettySize=auto;html=1;entryX=0;entryY=0.5;entryDx=0;entryDy=0;" edge="1" parent="1" source="yH9J0eVR_fN1qxmJFBAw-4" target="yH9J0eVR_fN1qxmJFBAw-11">
          <mxGeometry relative="1" as="geometry">
            <mxPoint x="310" y="380" as="targetPoint" />
          </mxGeometry>
        </mxCell>
        <mxCell id="yH9J0eVR_fN1qxmJFBAw-13" style="rounded=0;orthogonalLoop=1;jettySize=auto;html=1;entryX=0;entryY=0.5;entryDx=0;entryDy=0;exitX=1;exitY=0.5;exitDx=0;exitDy=0;" edge="1" parent="1" source="yH9J0eVR_fN1qxmJFBAw-4" target="yH9J0eVR_fN1qxmJFBAw-12">
          <mxGeometry relative="1" as="geometry" />
        </mxCell>
        <mxCell id="yH9J0eVR_fN1qxmJFBAw-4" value="&lt;h3 style=&quot;&quot;&gt;&lt;span style=&quot;background-color: initial; font-size: 14px;&quot;&gt;发起抽奖&lt;/span&gt;&lt;/h3&gt;" style="rounded=1;whiteSpace=wrap;html=1;verticalAlign=top;align=center;fillColor=#d5e8d4;strokeColor=#82b366;strokeWidth=2;" vertex="1" parent="1">
          <mxGeometry x="140" y="320" width="120" height="60" as="geometry" />
        </mxCell>
        <mxCell id="yH9J0eVR_fN1qxmJFBAw-19" style="rounded=0;orthogonalLoop=1;jettySize=auto;html=1;entryX=0;entryY=0.5;entryDx=0;entryDy=0;" edge="1" parent="1" source="yH9J0eVR_fN1qxmJFBAw-6" target="yH9J0eVR_fN1qxmJFBAw-20">
          <mxGeometry relative="1" as="geometry">
            <mxPoint x="450" y="470" as="targetPoint" />
          </mxGeometry>
        </mxCell>
        <mxCell id="yH9J0eVR_fN1qxmJFBAw-6" value="&lt;h3 style=&quot;&quot;&gt;&lt;span style=&quot;background-color: initial; font-size: 14px;&quot;&gt;发起签到&lt;/span&gt;&lt;/h3&gt;" style="rounded=1;whiteSpace=wrap;html=1;verticalAlign=top;align=center;fillColor=#d5e8d4;strokeColor=#82b366;strokeWidth=2;" vertex="1" parent="1">
          <mxGeometry x="140" y="420" width="120" height="60" as="geometry" />
        </mxCell>
        <mxCell id="yH9J0eVR_fN1qxmJFBAw-9" style="edgeStyle=orthogonalEdgeStyle;rounded=0;orthogonalLoop=1;jettySize=auto;html=1;" edge="1" parent="1" source="yH9J0eVR_fN1qxmJFBAw-8" target="yH9J0eVR_fN1qxmJFBAw-4">
          <mxGeometry relative="1" as="geometry" />
        </mxCell>
        <mxCell id="yH9J0eVR_fN1qxmJFBAw-8" value="&lt;h3 style=&quot;&quot;&gt;&lt;span style=&quot;background-color: initial; font-size: 14px;&quot;&gt;签到-&amp;gt;抽奖资格&lt;/span&gt;&lt;/h3&gt;" style="rounded=1;whiteSpace=wrap;html=1;verticalAlign=top;align=center;fillColor=#fff2cc;strokeColor=#000000;strokeWidth=2;" vertex="1" parent="1">
          <mxGeometry x="140" y="170" width="120" height="60" as="geometry" />
        </mxCell>
        <mxCell id="yH9J0eVR_fN1qxmJFBAw-24" style="rounded=0;orthogonalLoop=1;jettySize=auto;html=1;" edge="1" parent="1" source="yH9J0eVR_fN1qxmJFBAw-11" target="yH9J0eVR_fN1qxmJFBAw-18">
          <mxGeometry relative="1" as="geometry" />
        </mxCell>
        <mxCell id="yH9J0eVR_fN1qxmJFBAw-11" value="&lt;pre style=&quot;&quot;&gt;&lt;b&gt;&lt;font color=&quot;#ffffff&quot;&gt;&lt;span style=&quot;background-color: initial; font-size: 14px;&quot;&gt;黑名单抽奖&lt;/span&gt;&lt;br&gt;&lt;/font&gt;&lt;/b&gt;&lt;/pre&gt;" style="rounded=1;whiteSpace=wrap;html=1;verticalAlign=top;align=center;fillColor=#330066;strokeColor=#9673a6;strokeWidth=2;" vertex="1" parent="1">
          <mxGeometry x="310" y="320" width="120" height="60" as="geometry" />
        </mxCell>
        <mxCell id="yH9J0eVR_fN1qxmJFBAw-21" style="rounded=0;orthogonalLoop=1;jettySize=auto;html=1;entryX=0;entryY=0.5;entryDx=0;entryDy=0;exitX=1;exitY=0.5;exitDx=0;exitDy=0;" edge="1" parent="1" source="yH9J0eVR_fN1qxmJFBAw-12" target="yH9J0eVR_fN1qxmJFBAw-15">
          <mxGeometry relative="1" as="geometry" />
        </mxCell>
        <mxCell id="yH9J0eVR_fN1qxmJFBAw-22" style="rounded=0;orthogonalLoop=1;jettySize=auto;html=1;exitX=1;exitY=0.5;exitDx=0;exitDy=0;entryX=0;entryY=0.5;entryDx=0;entryDy=0;" edge="1" parent="1" source="yH9J0eVR_fN1qxmJFBAw-12" target="yH9J0eVR_fN1qxmJFBAw-16">
          <mxGeometry relative="1" as="geometry" />
        </mxCell>
        <mxCell id="yH9J0eVR_fN1qxmJFBAw-23" style="rounded=0;orthogonalLoop=1;jettySize=auto;html=1;entryX=0;entryY=0.5;entryDx=0;entryDy=0;exitX=1;exitY=0.5;exitDx=0;exitDy=0;" edge="1" parent="1" source="yH9J0eVR_fN1qxmJFBAw-12" target="yH9J0eVR_fN1qxmJFBAw-17">
          <mxGeometry relative="1" as="geometry" />
        </mxCell>
        <mxCell id="yH9J0eVR_fN1qxmJFBAw-12" value="&lt;h3 style=&quot;&quot;&gt;&lt;span style=&quot;background-color: initial; font-size: 14px;&quot;&gt;普通抽奖&lt;/span&gt;&lt;/h3&gt;" style="rounded=1;whiteSpace=wrap;html=1;verticalAlign=top;align=center;fillColor=#B5B500;strokeColor=#000000;strokeWidth=2;" vertex="1" parent="1">
          <mxGeometry x="310" y="250" width="120" height="60" as="geometry" />
        </mxCell>
        <mxCell id="yH9J0eVR_fN1qxmJFBAw-15" value="&lt;pre style=&quot;&quot;&gt;&lt;span style=&quot;background-color: initial;&quot;&gt;&lt;font style=&quot;font-size: 12px;&quot;&gt;&lt;b&gt;其他奖品&lt;/b&gt;&lt;/font&gt;&lt;/span&gt;&lt;/pre&gt;" style="rounded=1;whiteSpace=wrap;html=1;verticalAlign=top;align=center;fillColor=#fff2cc;strokeColor=#663300;strokeWidth=2;" vertex="1" parent="1">
          <mxGeometry x="460" y="90" width="120" height="60" as="geometry" />
        </mxCell>
        <mxCell id="yH9J0eVR_fN1qxmJFBAw-16" value="&lt;pre style=&quot;text-align: left;&quot;&gt;&lt;span style=&quot;background-color: initial;&quot;&gt;&lt;font style=&quot;font-size: 13px;&quot;&gt;&lt;b&gt;兜底奖品&lt;/b&gt;&lt;/font&gt;&lt;/span&gt;&lt;/pre&gt;" style="rounded=1;whiteSpace=wrap;html=1;verticalAlign=top;align=center;strokeWidth=2;" vertex="1" parent="1">
          <mxGeometry x="460" y="180" width="120" height="60" as="geometry" />
        </mxCell>
        <mxCell id="yH9J0eVR_fN1qxmJFBAw-17" value="&lt;h3 style=&quot;&quot;&gt;&lt;span style=&quot;background-color: initial; font-size: 14px;&quot;&gt;配置的积分奖品&lt;/span&gt;&lt;/h3&gt;" style="rounded=1;whiteSpace=wrap;html=1;verticalAlign=top;align=center;strokeWidth=2;" vertex="1" parent="1">
          <mxGeometry x="460" y="250" width="120" height="60" as="geometry" />
        </mxCell>
        <mxCell id="yH9J0eVR_fN1qxmJFBAw-18" value="&lt;pre style=&quot;&quot;&gt;&lt;div style=&quot;text-align: justify;&quot;&gt;&lt;b style=&quot;background-color: initial; font-family: Helvetica; white-space: normal;&quot;&gt;&lt;span style=&quot;background-color: initial; font-size: 14px;&quot;&gt;0.01~1积分&lt;/span&gt;&lt;/b&gt;&lt;/div&gt;&lt;b&gt;&lt;div style=&quot;text-align: justify;&quot;&gt;&lt;b style=&quot;background-color: initial; font-family: Helvetica; white-space: normal;&quot;&gt;&lt;span style=&quot;background-color: initial; font-size: 14px;&quot;&gt;配置到代码里&lt;/span&gt;&lt;/b&gt;&lt;/div&gt;&lt;/b&gt;&lt;/pre&gt;" style="rounded=1;whiteSpace=wrap;html=1;verticalAlign=top;align=center;strokeWidth=2;" vertex="1" parent="1">
          <mxGeometry x="460" y="320" width="120" height="60" as="geometry" />
        </mxCell>
        <mxCell id="yH9J0eVR_fN1qxmJFBAw-20" value="&lt;h3&gt;积分奖励&lt;/h3&gt;&lt;div&gt;&lt;br&gt;&lt;/div&gt;" style="rounded=1;whiteSpace=wrap;html=1;verticalAlign=top;align=center;fillColor=#FFFFCC;strokeColor=#000000;strokeWidth=2;dashed=1;" vertex="1" parent="1">
          <mxGeometry x="460" y="420" width="120" height="60" as="geometry" />
        </mxCell>
        <mxCell id="yH9J0eVR_fN1qxmJFBAw-27" value="&lt;b&gt;积分场景&lt;/b&gt;" style="ellipse;shape=cloud;whiteSpace=wrap;html=1;" vertex="1" parent="1">
          <mxGeometry x="550" y="150" width="90" height="60" as="geometry" />
        </mxCell>
        <mxCell id="yH9J0eVR_fN1qxmJFBAw-32" value="" style="edgeStyle=orthogonalEdgeStyle;rounded=0;orthogonalLoop=1;jettySize=auto;html=1;" edge="1" parent="1" source="yH9J0eVR_fN1qxmJFBAw-30" target="yH9J0eVR_fN1qxmJFBAw-31">
          <mxGeometry relative="1" as="geometry" />
        </mxCell>
        <mxCell id="yH9J0eVR_fN1qxmJFBAw-34" style="rounded=0;orthogonalLoop=1;jettySize=auto;html=1;entryX=0;entryY=0.5;entryDx=0;entryDy=0;exitX=1;exitY=0.5;exitDx=0;exitDy=0;" edge="1" parent="1" source="yH9J0eVR_fN1qxmJFBAw-30" target="yH9J0eVR_fN1qxmJFBAw-33">
          <mxGeometry relative="1" as="geometry" />
        </mxCell>
        <mxCell id="yH9J0eVR_fN1qxmJFBAw-30" value="&lt;h3 style=&quot;&quot;&gt;&lt;span style=&quot;background-color: initial; font-size: 14px;&quot;&gt;奖品分发&lt;/span&gt;&lt;/h3&gt;" style="rounded=1;whiteSpace=wrap;html=1;verticalAlign=top;align=center;fillColor=#f8cecc;strokeColor=#b85450;strokeWidth=2;" vertex="1" parent="1">
          <mxGeometry x="140" y="580" width="120" height="60" as="geometry" />
        </mxCell>
        <mxCell id="yH9J0eVR_fN1qxmJFBAw-36" value="" style="edgeStyle=orthogonalEdgeStyle;rounded=0;orthogonalLoop=1;jettySize=auto;html=1;" edge="1" parent="1" source="yH9J0eVR_fN1qxmJFBAw-31" target="yH9J0eVR_fN1qxmJFBAw-35">
          <mxGeometry relative="1" as="geometry" />
        </mxCell>
        <mxCell id="yH9J0eVR_fN1qxmJFBAw-31" value="&lt;h3 style=&quot;&quot;&gt;&lt;span style=&quot;background-color: initial; font-size: 14px;&quot;&gt;积分奖励&lt;/span&gt;&lt;/h3&gt;" style="rounded=1;whiteSpace=wrap;html=1;verticalAlign=top;align=center;fillColor=#f5f5f5;strokeColor=#666666;strokeWidth=2;fontColor=#333333;" vertex="1" parent="1">
          <mxGeometry x="340" y="580" width="120" height="60" as="geometry" />
        </mxCell>
        <mxCell id="yH9J0eVR_fN1qxmJFBAw-33" value="&lt;h3 style=&quot;&quot;&gt;&lt;span style=&quot;background-color: initial; font-size: 14px;&quot;&gt;其他奖励&lt;/span&gt;&lt;/h3&gt;" style="rounded=1;whiteSpace=wrap;html=1;verticalAlign=top;align=center;fillColor=#f5f5f5;strokeColor=#666666;strokeWidth=2;fontColor=#333333;dashed=1;" vertex="1" parent="1">
          <mxGeometry x="340" y="680" width="120" height="60" as="geometry" />
        </mxCell>
        <mxCell id="yH9J0eVR_fN1qxmJFBAw-35" value="&lt;h3 style=&quot;&quot;&gt;&lt;span style=&quot;background-color: initial; font-size: 14px;&quot;&gt;积分账户&lt;/span&gt;&lt;/h3&gt;" style="rounded=1;whiteSpace=wrap;html=1;verticalAlign=top;align=center;fillColor=#dae8fc;strokeColor=#6c8ebf;strokeWidth=2;" vertex="1" parent="1">
          <mxGeometry x="540" y="580" width="120" height="60" as="geometry" />
        </mxCell>
        <mxCell id="yH9J0eVR_fN1qxmJFBAw-38" style="edgeStyle=orthogonalEdgeStyle;rounded=0;orthogonalLoop=1;jettySize=auto;html=1;entryX=0.5;entryY=1;entryDx=0;entryDy=0;" edge="1" parent="1" source="yH9J0eVR_fN1qxmJFBAw-37" target="yH9J0eVR_fN1qxmJFBAw-35">
          <mxGeometry relative="1" as="geometry" />
        </mxCell>
        <mxCell id="yH9J0eVR_fN1qxmJFBAw-37" value="&lt;pre style=&quot;font-size: 14px;&quot;&gt;&lt;b&gt;&lt;span style=&quot;&quot;&gt;sku :&lt;/span&gt;&lt;span style=&quot;&quot;&gt;100积分 - 1次抽奖&lt;/span&gt;&lt;/b&gt;&lt;/pre&gt;" style="rounded=1;whiteSpace=wrap;html=1;verticalAlign=top;align=center;fillColor=#dae8fc;strokeColor=#6c8ebf;strokeWidth=2;" vertex="1" parent="1">
          <mxGeometry x="500" y="680" width="200" height="60" as="geometry" />
        </mxCell>
        <mxCell id="yH9J0eVR_fN1qxmJFBAw-39" value="&lt;b&gt;后续对接&lt;/b&gt;" style="ellipse;shape=cloud;whiteSpace=wrap;html=1;" vertex="1" parent="1">
          <mxGeometry x="550" y="400" width="90" height="60" as="geometry" />
        </mxCell>
      </root>
    </mxGraphModel>
  </diagram>
</mxfile>
